<svg width="49" height="49" viewBox="0 0 49 49" fill="none" xmlns="http://www.w3.org/2000/svg">
<path fill-rule="evenodd" clip-rule="evenodd" d="M24.7512 5C30.5142 5 35.2172 9.70221 35.2172 15.466C35.2172 21.2392 30.505 26 24.7512 26C18.9881 26 14.2852 21.2978 14.2852 15.534C14.2852 9.76078 18.9974 5 24.7512 5ZM42.2402 38.0666C42.012 33.0376 37.8332 29 32.75 29H16.75L16.3166 29.0098C11.2876 29.238 7.25 33.4168 7.25 38.5V40.5L7.26163 40.7864C7.40805 42.5817 8.91799 44 10.75 44H38.75L39.0364 43.9884C40.8317 43.8419 42.25 42.332 42.25 40.5V38.5L42.2402 38.0666ZM16.75 32H32.75L33.1171 32.0104C36.5201 32.2027 39.25 35.0516 39.25 38.5V40.5L39.2366 40.6132C39.1839 40.8322 38.9828 41 38.75 41H10.75L10.6368 40.9866C10.4178 40.9339 10.25 40.7328 10.25 40.5V38.5L10.2604 38.1329C10.4527 34.7299 13.3016 32 16.75 32ZM17.2852 15.534C17.2852 11.4108 20.6611 8 24.7512 8C28.8575 8 32.2172 11.3592 32.2172 15.466C32.2172 19.5892 28.8412 23 24.7512 23C20.6448 23 17.2852 19.6408 17.2852 15.534Z" fill="white"/>
</svg>
