<svg width="40" height="40" viewBox="0 0 40 40" fill="none" xmlns="http://www.w3.org/2000/svg">
<path d="M20.1999 21.3C20.0832 21.2833 19.9332 21.2833 19.7999 21.3C16.8665 21.2 14.5332 18.8 14.5332 15.85C14.5332 12.8333 16.9665 10.3833 19.9999 10.3833C23.0165 10.3833 25.4665 12.8333 25.4665 15.85C25.4499 18.8 23.1332 21.2 20.1999 21.3Z" stroke="white" stroke-width="2" stroke-linecap="round" stroke-linejoin="round"/>
<path d="M31.2342 32.3001C28.2676 35.0168 24.3342 36.6668 20.0009 36.6668C15.6676 36.6668 11.7342 35.0168 8.76758 32.3001C8.93424 30.7334 9.93424 29.2001 11.7176 28.0001C16.2842 24.9668 23.7509 24.9668 28.2842 28.0001C30.0676 29.2001 31.0676 30.7334 31.2342 32.3001Z" stroke="white" stroke-width="2" stroke-linecap="round" stroke-linejoin="round"/>
<path d="M20.0007 36.6668C29.2054 36.6668 36.6673 29.2049 36.6673 20.0002C36.6673 10.7954 29.2054 3.3335 20.0007 3.3335C10.7959 3.3335 3.33398 10.7954 3.33398 20.0002C3.33398 29.2049 10.7959 36.6668 20.0007 36.6668Z" stroke="white" stroke-width="2" stroke-linecap="round" stroke-linejoin="round"/>
</svg>
