<svg width="24" height="25" viewBox="0 0 24 25" fill="none" xmlns="http://www.w3.org/2000/svg">
<path d="M9.02275 15.7558C9.39952 15.8029 9.67589 16.1218 9.67976 16.4912L9.67393 16.5931L9.17393 20.5931C9.12256 21.0041 8.74771 21.2956 8.3367 21.2442C7.95994 21.1972 7.68356 20.8783 7.67969 20.5088L7.68552 20.407L8.18552 16.407C8.23261 16.0302 8.55151 15.7539 8.92092 15.75L9.02275 15.7558Z" fill="white"/>
<path d="M17.572 2.75C19.2666 2.75 20.6515 4.0764 20.745 5.74766L20.75 5.928V9.5C20.75 9.91421 20.4142 10.25 20 10.25C19.6203 10.25 19.3065 9.96785 19.2568 9.60177L19.25 9.5V5.928C19.25 5.05004 18.5757 4.32957 17.7168 4.25616L17.572 4.25H5.428C4.55004 4.25 3.82957 4.92427 3.75616 5.78322L3.75 5.928V14.072C3.75 14.95 4.42427 15.6704 5.28322 15.7438L5.428 15.75H12C12.4142 15.75 12.75 16.0858 12.75 16.5C12.75 16.8797 12.4678 17.1935 12.1018 17.2432L12 17.25H5.428C3.73336 17.25 2.34852 15.9236 2.25503 14.2523L2.25 14.072V5.928C2.25 4.23336 3.5764 2.84852 5.24766 2.75503L5.428 2.75H17.572Z" fill="white"/>
<path d="M12.0017 19.75C12.4159 19.75 12.7517 20.0858 12.7517 20.5C12.7517 20.8797 12.4695 21.1935 12.1035 21.2432L12.0017 21.25H6.92969C6.51547 21.25 6.17969 20.9142 6.17969 20.5C6.17969 20.1203 6.46184 19.8065 6.82792 19.7568L6.92969 19.75H12.0017Z" fill="white"/>
<path fill-rule="evenodd" clip-rule="evenodd" d="M16.5 15.75H20.5C21.7426 15.75 22.75 16.7574 22.75 18V20C22.75 21.2426 21.7426 22.25 20.5 22.25H16.5C15.2574 22.25 14.25 21.2426 14.25 20V18C14.25 16.7574 15.2574 15.75 16.5 15.75ZM20.5 17.25H16.5C16.0858 17.25 15.75 17.5858 15.75 18V20C15.75 20.4142 16.0858 20.75 16.5 20.75H20.5C20.9142 20.75 21.25 20.4142 21.25 20V18C21.25 17.5858 20.9142 17.25 20.5 17.25Z" fill="white"/>
<path d="M18.5 12.25C19.9625 12.25 21.1584 13.3917 21.245 14.8325L21.25 15V16.5C21.25 16.9142 20.9142 17.25 20.5 17.25C20.1203 17.25 19.8065 16.9678 19.7568 16.6018L19.75 16.5V15C19.75 14.3096 19.1904 13.75 18.5 13.75C17.8528 13.75 17.3205 14.2419 17.2565 14.8722L17.25 15V16.5C17.25 16.9142 16.9142 17.25 16.5 17.25C16.1203 17.25 15.8065 16.9678 15.7568 16.6018L15.75 16.5V15C15.75 13.4812 16.9812 12.25 18.5 12.25Z" fill="white"/>
<path d="M14 11.25C14.4142 11.25 14.75 11.5858 14.75 12C14.75 12.3797 14.4678 12.6935 14.1018 12.7432L14 12.75H12C11.5858 12.75 11.25 12.4142 11.25 12C11.25 11.6203 11.5322 11.3065 11.8982 11.2568L12 11.25H14Z" fill="white"/>
<path d="M8.48354 10.5924C8.79172 10.3156 9.26591 10.3411 9.54267 10.6493C9.79428 10.9294 9.7961 11.3468 9.56281 11.6283L9.48579 11.7084L8.14957 12.9084C7.84139 13.1852 7.3672 13.1597 7.09043 12.8515C6.83883 12.5714 6.83701 12.154 7.0703 11.8725L7.14732 11.7924L8.48354 10.5924Z" fill="white"/>
<path d="M6.42649 11.2527C6.67816 10.9726 7.09294 10.9261 7.39776 11.128L7.48564 11.196L8.14942 11.7924C8.45753 12.0693 8.48289 12.5435 8.20605 12.8516C7.95438 13.1317 7.5396 13.1781 7.23478 12.9762L7.1469 12.9082L6.48312 12.3118C6.17501 12.035 6.14966 11.5608 6.42649 11.2527Z" fill="white"/>
<path d="M16 7.25C16.4142 7.25 16.75 7.58579 16.75 8C16.75 8.3797 16.4678 8.69349 16.1018 8.74315L16 8.75H12C11.5858 8.75 11.25 8.41421 11.25 8C11.25 7.6203 11.5322 7.30651 11.8982 7.25685L12 7.25H16Z" fill="white"/>
<path d="M8.48354 6.59239C8.79172 6.31562 9.26591 6.34109 9.54267 6.64927C9.79428 6.92944 9.7961 7.3468 9.56281 7.6283L9.48579 7.70841L8.14957 8.90841C7.84139 9.18517 7.3672 9.1597 7.09043 8.85152C6.83883 8.57136 6.83701 8.154 7.0703 7.87249L7.14732 7.79239L8.48354 6.59239Z" fill="white"/>
<path d="M6.42649 7.25265C6.67816 6.97255 7.09294 6.92613 7.39776 7.128L7.48564 7.19602L8.14942 7.79242C8.45753 8.06926 8.48289 8.54346 8.20605 8.85157C7.95438 9.13167 7.5396 9.17809 7.23478 8.97623L7.1469 8.9082L6.48312 8.3118C6.17501 8.03496 6.14966 7.56077 6.42649 7.25265Z" fill="white"/>
</svg>
