<svg width="121" height="41" viewBox="0 0 121 41" fill="none" xmlns="http://www.w3.org/2000/svg">
<path d="M78.0777 17.8354C76.5773 17.8354 75.377 19.0919 74.4768 21.605C73.5766 24.0806 73.1265 26.7437 73.1265 29.5943C73.1265 34.0954 74.5143 36.3459 77.29 36.3459C78.1902 36.3459 79.1467 36.1396 80.1594 35.727C81.1721 35.2769 81.9786 34.8456 82.5787 34.433L83.4227 33.7578L84.7167 35.502C84.4166 35.9146 83.8165 36.4584 82.9163 37.1336C82.0161 37.8088 81.1721 38.3714 80.3845 38.8215C79.5968 39.2716 78.584 39.6842 77.3462 40.0593C76.1085 40.4344 74.8894 40.6219 73.6891 40.6219C70.7635 40.6219 68.5692 39.6654 67.1064 37.7525C65.6435 35.8395 64.9121 33.2702 64.9121 30.0445C64.9121 25.5809 66.1311 21.9613 68.5692 19.1857C71.0448 16.41 74.2143 15.0222 78.0777 15.0222C80.5908 15.0222 82.5787 15.6036 84.0415 16.7664C85.5419 17.8916 86.2921 19.2982 86.2921 20.9861C86.2921 22.6365 85.7669 24.0618 84.7167 25.2621C83.779 25.2621 82.6912 25.0558 81.4535 24.6432C80.2157 24.2306 79.2779 23.7242 78.6403 23.1241L79.4842 18.1729C79.1467 17.9479 78.6778 17.8354 78.0777 17.8354Z" fill="url(#paint0_linear_16574_30158)"/>
<path d="M61.4534 18.5105C61.4534 20.0859 60.947 22.8052 59.9343 26.6686C58.9216 30.4945 58.4152 33.0076 58.4152 34.2079C58.4152 35.3706 58.584 35.952 58.9216 35.952C59.1466 35.952 60.0093 35.5957 61.5097 34.883L62.1848 34.5455L63.1413 36.5147C62.8037 36.8147 62.3536 37.1898 61.791 37.6399C61.2284 38.09 60.1781 38.7089 58.6403 39.4966C57.1024 40.2468 55.6771 40.6219 54.3643 40.6219C53.0515 40.6219 52.02 40.228 51.2698 39.4403C50.5196 38.6152 50.1445 37.5274 50.1445 36.1771C50.1445 34.7893 50.6134 32.3512 51.5511 28.8629C52.4888 25.3371 52.9577 23.049 52.9577 21.9988C52.9577 20.4234 52.4701 18.9418 51.4948 17.554L50.9885 16.8789L51.0447 16.1474C53.0327 15.5848 56.2584 15.3035 60.722 15.3035C61.2096 15.8661 61.4534 16.9351 61.4534 18.5105ZM55.0394 9.17082C54.2892 8.42064 53.9142 7.42666 53.9142 6.18888C53.9142 4.95109 54.4205 3.86334 55.4333 2.92562C56.4835 1.9879 57.6838 1.51904 59.0341 1.51904C60.3844 1.51904 61.4346 1.89413 62.1848 2.6443C62.935 3.39448 63.3101 4.38846 63.3101 5.62625C63.3101 6.82653 62.7662 7.89552 61.6785 8.83324C60.6282 9.77096 59.4467 10.2398 58.1339 10.2398C56.8211 10.2398 55.7896 9.88348 55.0394 9.17082Z" fill="url(#paint1_linear_16574_30158)"/>
<path d="M30.438 40.1155H30.0442C29.9691 39.8155 29.9316 39.1403 29.9316 38.0901C29.9316 37.0023 30.438 34.1141 31.4507 29.4256C32.4635 24.737 32.9698 22.0551 32.9698 21.3799C32.9698 20.2172 32.4447 18.9419 31.3945 17.5541L30.8881 16.8789L30.9444 16.1475C32.9698 15.5848 36.2144 15.3035 40.6779 15.3035C41.128 16.2788 41.353 17.6478 41.353 19.4107C41.7656 18.7356 42.6283 17.8354 43.9411 16.7101C45.2539 15.5848 46.6043 15.0222 47.9921 15.0222C50.0176 15.0222 51.0303 16.7851 51.0303 20.3109C50.8427 20.536 50.5802 20.8361 50.2426 21.2112C49.9425 21.5487 49.3049 22.0363 48.3297 22.674C47.3919 23.3116 46.473 23.7055 45.5728 23.8555C45.5353 23.8555 45.2164 23.3491 44.6163 22.3364C44.0162 21.3237 43.5661 20.8173 43.266 20.8173C42.3283 21.1549 41.5031 21.7175 40.7904 22.5052C39.065 30.2695 38.2023 35.2957 38.2023 37.5837C38.2023 38.4089 38.2211 38.9903 38.2586 39.3279C36.9458 39.853 34.3389 40.1155 30.438 40.1155Z" fill="url(#paint2_linear_16574_30158)"/>
<path d="M12.0966 40.6219C8.60825 40.6219 5.72008 39.2154 3.43205 36.4022C1.14402 33.5515 0 29.8382 0 25.2621C0 20.6861 0.787683 16.5226 2.36305 12.7717C3.93841 8.98333 6.18894 5.90762 9.11462 3.54457C12.0403 1.18152 15.1535 0 18.4543 0C21.7926 0 24.4744 0.750174 26.4999 2.25052C28.5629 3.75087 29.5944 5.55129 29.5944 7.65178C29.5944 9.71475 28.9755 11.4777 27.7377 12.9405C26.5374 12.9405 25.1871 12.6779 23.6867 12.1528C22.1864 11.6277 21.0611 10.9901 20.311 10.2399L21.38 4.55731C20.4798 3.99468 19.2982 3.71336 17.8354 3.71336C15.5474 3.71336 13.5219 5.68257 11.759 9.62098C9.99607 13.5219 9.11462 18.3418 9.11462 24.0806C9.11462 27.869 9.73351 30.6259 10.9713 32.3513C12.2466 34.0392 13.7844 34.8831 15.5849 34.8831C18.5481 34.8831 21.3987 33.4953 24.1369 30.7196L26.4436 32.8014C26.031 33.4015 25.2809 34.2267 24.1931 35.2769C23.1054 36.3272 22.0364 37.2086 20.9861 37.9213C19.9359 38.5965 18.6043 39.2154 16.9914 39.778C15.3786 40.3406 13.7469 40.6219 12.0966 40.6219Z" fill="url(#paint3_linear_16574_30158)"/>
<path d="M117.229 0.0532296C118.167 0.0532296 119.329 0.803404 120.717 2.30375C119.254 4.96687 116.666 8.38016 112.953 12.5436C111.715 13.9314 109.877 15.9569 107.439 18.62C108.302 21.0581 109.39 23.9838 110.702 27.3971C112.653 32.5358 114.209 35.1051 115.372 35.1051C115.747 35.1051 116.722 34.6738 118.298 33.8111L119.086 33.4172L120.267 35.8928C119.104 37.0556 117.51 38.1433 115.485 39.1561C113.497 40.1688 111.771 40.6752 110.308 40.6752C108.883 40.6752 107.739 40.3001 106.876 39.5499C106.014 38.7622 105.17 37.2994 104.345 35.1614C103.519 33.0234 102.432 29.9102 101.081 25.8217C96.8803 30.7354 93.3545 35.4052 90.5039 39.8312C90.1288 40.4689 89.5474 40.7877 88.7597 40.7877C87.972 40.7877 86.9781 40 85.7778 38.4246C87.5032 35.4614 90.2413 31.8606 93.9922 27.6221C95.305 26.1593 97.1804 24.0963 99.6185 21.4332C96.8803 13.3313 94.9299 8.45518 93.7671 6.8048C92.6419 5.15441 91.4978 3.74784 90.3351 2.58507L90.5601 1.74112C90.4851 1.70361 90.954 1.55358 91.9667 1.29102C94.8174 0.615861 97.7243 0.203265 100.687 0.0532296C101.625 0.878422 102.394 2.32251 102.994 4.38549C104.607 9.82425 105.601 13.1438 105.976 14.344C110.777 8.86777 114.097 4.42299 115.935 1.0097C116.272 0.372054 116.704 0.0532296 117.229 0.0532296Z" fill="url(#paint4_linear_16574_30158)"/>
<defs>
<linearGradient id="paint0_linear_16574_30158" x1="41.6314" y1="-28.4946" x2="41.6314" y2="34.1598" gradientUnits="userSpaceOnUse">
<stop stop-color="#E63232"/>
<stop offset="1" stop-color="#E63232"/>
</linearGradient>
<linearGradient id="paint1_linear_16574_30158" x1="41.6307" y1="-28.4946" x2="41.6307" y2="34.1598" gradientUnits="userSpaceOnUse">
<stop stop-color="#E63232"/>
<stop offset="1" stop-color="#E63232"/>
</linearGradient>
<linearGradient id="paint2_linear_16574_30158" x1="41.6307" y1="-28.4946" x2="41.6307" y2="34.1598" gradientUnits="userSpaceOnUse">
<stop stop-color="#E63232"/>
<stop offset="1" stop-color="#E63232"/>
</linearGradient>
<linearGradient id="paint3_linear_16574_30158" x1="41.6306" y1="-28.4946" x2="41.6306" y2="34.1599" gradientUnits="userSpaceOnUse">
<stop stop-color="#E63232"/>
<stop offset="1" stop-color="#E63232"/>
</linearGradient>
<linearGradient id="paint4_linear_16574_30158" x1="103.294" y1="40.0028" x2="103.294" y2="-2.14592e-05" gradientUnits="userSpaceOnUse">
<stop stop-color="#FF4D4D"/>
<stop offset="1" stop-color="#F79F2D"/>
</linearGradient>
</defs>
</svg>
