<svg width="133" height="55" viewBox="0 0 133 55" fill="none" xmlns="http://www.w3.org/2000/svg">
<path d="M12.4904 54.6029C10.615 54.6029 9.05835 54.1341 7.82057 53.1963C6.58278 52.2961 5.96388 51.0396 5.96388 49.4267C5.96388 45.1132 10.3712 42.2813 19.1857 40.931C19.5233 39.6932 19.7858 38.4929 19.9734 37.3302C18.248 38.3804 16.4288 38.9055 14.5159 38.9055C11.0276 38.9055 8.21441 37.649 6.07641 35.1359C3.93841 32.5853 2.86942 29.2845 2.86942 25.2336C2.86942 21.1827 3.6571 17.4318 5.23246 13.981C6.80783 10.5302 9.05835 7.67954 11.984 5.42901C14.9472 3.17849 18.0792 2.05323 21.38 2.05323C24.7182 2.05323 27.4376 2.87842 29.5381 4.52881C31.6761 6.14168 32.7451 8.20466 32.7451 10.7177C32.7451 12.2181 32.4825 13.4371 31.9574 14.3748C31.6573 14.4123 31.2447 14.4311 30.7196 14.4311C27.8315 14.4311 25.656 13.9622 24.1931 13.0245L24.2494 6.94812C23.3492 6.16043 22.1676 5.76659 20.7048 5.76659C18.4168 5.76659 16.3913 7.5295 14.6284 11.0553C12.8655 14.5436 11.984 18.8009 11.984 23.827C11.984 27.1653 12.5279 29.6221 13.6157 31.1975C14.7034 32.7729 15.9975 33.5605 17.4978 33.5605C19.7483 33.5605 21.7738 32.4353 23.5742 30.1848C25.3746 27.9342 26.6687 25.2524 27.4564 22.1391L30.4946 22.6455C29.0692 33.373 26.9125 41.3811 24.0243 46.6698C21.1362 51.9586 17.2915 54.6029 12.4904 54.6029ZM9.62098 49.2579C9.62098 50.3082 10.5024 50.8333 12.2653 50.8333C13.1656 50.8333 14.2346 50.2707 15.4723 49.1454C16.7101 48.0577 17.6478 46.6323 18.2855 44.8694C16.11 45.057 14.122 45.5446 12.3216 46.3323C10.5212 47.1574 9.62098 48.1327 9.62098 49.2579ZM41.4874 42.6752C38.8993 42.6752 36.8738 41.7749 35.411 39.9745C33.9482 38.1366 33.2167 35.586 33.2167 32.3228C33.2167 28.1593 34.3232 24.5772 36.5363 21.5765C38.7868 18.5758 41.8813 17.0755 45.8197 17.0755L47.8451 17.188C48.4828 16.8504 49.1954 16.6816 49.9831 16.6816C52.9463 16.6816 54.4279 19.476 54.4279 25.0648C55.9658 24.9898 57.5224 24.7835 59.0977 24.4459L59.998 24.2209L60.3355 26.4151C59.0977 26.9403 57.4286 27.4091 55.3281 27.8217L54.2029 28.0468C53.4902 31.9852 52.0461 35.4172 49.8706 38.3429C47.6951 41.2311 44.9007 42.6752 41.4874 42.6752ZM44.5256 37.8365C46.101 37.8365 47.5076 36.8238 48.7453 34.7983C50.0206 32.7729 50.9021 30.6349 51.3897 28.3843C47.3763 28.3843 45.3696 26.884 45.3696 23.8833C45.3696 22.683 45.6134 21.5578 46.101 20.5075L46.3823 19.9449C46.2323 19.8699 46.0447 19.8324 45.8197 19.8324C45.5946 19.8324 45.4258 19.8699 45.3133 19.9449C44.3756 20.545 43.4941 21.9516 42.6689 24.1646C41.8437 26.3776 41.4311 28.9095 41.4311 31.7601C41.4311 35.8111 42.4626 37.8365 44.5256 37.8365ZM73.9481 18.7071C74.0231 18.6321 74.2294 18.1445 74.567 17.2443C76.3299 17.2443 78.693 17.7694 81.6562 18.8196C80.7184 21.9328 79.9683 25.1961 79.4056 28.6094C78.843 31.9852 78.5617 34.4045 78.5617 35.8673C78.5617 37.2927 78.7117 38.0053 79.0118 38.0053C79.2368 38.0053 80.062 37.649 81.4874 36.9363L82.1625 36.5987L83.1753 38.568C82.8377 38.868 82.3876 39.2431 81.8249 39.6932C81.2998 40.1433 80.2871 40.7622 78.7867 41.5499C77.2864 42.3001 75.9361 42.6752 74.7358 42.6752C72.4103 42.6752 71.0599 41.6249 70.6849 39.5244C68.2843 41.6249 66.1088 42.6752 64.1583 42.6752C62.2454 42.6752 60.6138 41.925 59.2635 40.4246C57.9507 38.9243 57.2942 36.5612 57.2942 33.3355C57.2942 28.3093 58.3257 24.3522 60.3887 21.464C62.4517 18.5383 64.946 17.0755 67.8717 17.0755C69.9722 17.0755 71.9977 17.6193 73.9481 18.7071ZM67.5341 37.8928C68.4343 37.8928 69.4471 37.5365 70.5723 36.8238C70.8349 31.5351 71.7163 26.3026 73.2167 21.1264C72.0914 20.6388 71.135 20.395 70.3473 20.395C68.997 20.395 67.8342 21.7265 66.859 24.3897C65.9213 27.0153 65.4524 29.9222 65.4524 33.1104C65.4524 36.2987 66.1463 37.8928 67.5341 37.8928ZM88.5466 42.6752C87.2713 42.6752 86.2023 42.2438 85.3396 41.3811C84.5144 40.5184 84.1018 39.3181 84.1018 37.7803C84.1018 36.2049 85.0208 31.235 86.8587 22.8706C88.7342 14.4686 89.6719 8.41096 89.6719 4.69759L89.3343 2.22202C92.26 1.20928 94.9981 0.702917 97.5487 0.702917C97.9238 1.22804 98.1113 2.147 98.1113 3.4598C98.1113 6.4605 97.1549 12.2744 95.2419 20.9014C93.3665 29.4908 92.4288 34.4983 92.4288 35.9236C92.4288 37.3114 92.5976 38.0053 92.9351 38.0053L96.8736 36.5987L97.8863 38.568C96.611 39.5807 95.0544 40.5184 93.2165 41.3811C91.416 42.2438 89.8594 42.6752 88.5466 42.6752Z" fill="url(#paint0_linear_16580_27839)"/>
<path d="M128.936 2.05323C129.874 2.05323 131.036 2.8034 132.424 4.30375C130.961 6.96687 128.373 10.3802 124.66 14.5436C123.422 15.9314 121.584 17.9569 119.146 20.62C120.009 23.0581 121.097 25.9838 122.409 29.3971C124.36 34.5358 125.916 37.1051 127.079 37.1051C127.454 37.1051 128.429 36.6738 130.005 35.8111L130.793 35.4172L131.974 37.8928C130.811 39.0556 129.217 40.1433 127.192 41.1561C125.204 42.1688 123.478 42.6752 122.015 42.6752C120.59 42.6752 119.446 42.3001 118.583 41.5499C117.721 40.7622 116.877 39.2994 116.052 37.1614C115.226 35.0234 114.139 31.9102 112.788 27.8217C108.587 32.7354 105.062 37.4052 102.211 41.8312C101.836 42.4689 101.254 42.7877 100.467 42.7877C99.6791 42.7877 98.6851 42 97.4848 40.4246C99.2102 37.4614 101.948 33.8606 105.699 29.6221C107.012 28.1593 108.887 26.0963 111.326 23.4332C108.587 15.3313 106.637 10.4552 105.474 8.8048C104.349 7.15441 103.205 5.74784 102.042 4.58507L102.267 3.74112C102.192 3.70361 102.661 3.55358 103.674 3.29102C106.524 2.61586 109.431 2.20326 112.395 2.05323C113.332 2.87842 114.101 4.32251 114.701 6.38549C116.314 11.8242 117.308 15.1438 117.683 16.344C122.484 10.8678 125.804 6.42299 127.642 3.0097C127.979 2.37205 128.411 2.05323 128.936 2.05323Z" fill="url(#paint1_linear_16580_27839)"/>
<defs>
<linearGradient id="paint0_linear_16580_27839" x1="49" y1="-26.4413" x2="49" y2="36.2131" gradientUnits="userSpaceOnUse">
<stop stop-color="#E63232"/>
<stop offset="1" stop-color="#E63232"/>
</linearGradient>
<linearGradient id="paint1_linear_16580_27839" x1="115.001" y1="42.0028" x2="115.001" y2="1.99998" gradientUnits="userSpaceOnUse">
<stop stop-color="#FF4D4D"/>
<stop offset="1" stop-color="#F79F2D"/>
</linearGradient>
</defs>
</svg>
